<svg width="50" height="50" viewBox="0 0 300 300" fill="none" xmlns="http://www.w3.org/2000/svg">
  <defs>
    <linearGradient id="kFill" x1="0%" y1="0%" x2="100%" y2="100%">
      <stop offset="0%" stop-color="#1a1a1a" />
      <stop offset="100%" stop-color="#050505" />
    </linearGradient>
    <linearGradient id="kStroke" x1="0%" y1="0%" x2="100%" y2="100%">
      <stop offset="0%" stop-color="#ffffff" />
      <stop offset="100%" stop-color="#888888" />
    </linearGradient>
    <linearGradient id="kAccent" x1="0%" y1="0%" x2="100%" y2="0%">
      <stop offset="0%" stop-color="#00FFA3" />
      <stop offset="100%" stop-color="#00A3FF" />
    </linearGradient>
    <filter id="neon-glow" x="-50%" y="-50%" width="200%" height="200%">
      <feGaussianBlur stdDeviation="4" result="blur" />
      <feComposite in="SourceGraphic" in2="blur" operator="over" />
    </filter>
  </defs>

  <path 
    d="M80 40 L80 140 L110 130 L110 40 L80 40 Z" 
    fill="url(#kFill)" 
    stroke="url(#kStroke)" 
    stroke-width="12"
  />
  <path 
    d="M80 150 L80 260 L110 260 L110 160 L80 150 Z" 
    fill="url(#kFill)" 
    stroke="url(#kStroke)" 
    stroke-width="12"
  />

  <path 
    d="M110 130 L180 50 L240 50 L140 150 L110 130 Z" 
    fill="url(#kFill)" 
    stroke="url(#kStroke)" 
    stroke-width="12"
  />

  <path 
    d="M130 160 L200 260 L250 260 L160 140 L130 160 Z" 
    fill="url(#kFill)" 
    stroke="url(#kStroke)" 
    stroke-width="12"
  />
  
  <path 
    d="M95 50 L95 250" 
    stroke="url(#kAccent)" 
    stroke-width="16" 
    stroke-linecap="round"
    filter="url(#neon-glow)"
    stroke-opacity="1"
  />

  <path 
    d="M190 65 L125 140" 
    stroke="url(#kAccent)" 
    stroke-width="16" 
    stroke-linecap="round"
    filter="url(#neon-glow)"
    stroke-opacity="1"
  />

  <path 
    d="M145 170 L215 250" 
    stroke="url(#kAccent)" 
    stroke-width="16" 
    stroke-linecap="round"
    filter="url(#neon-glow)"
    stroke-opacity="1"
  />
  
  <circle cx="95" cy="50" r="14" fill="#00FFA3" />
  <circle cx="95" cy="250" r="14" fill="#00A3FF" />
  <circle cx="190" cy="65" r="14" fill="#00FFA3" />
  <circle cx="215" cy="250" r="14" fill="#00A3FF" />
</svg>